<svg width="58" height="57" viewBox="0 0 58 57" fill="none" xmlns="http://www.w3.org/2000/svg">
  <path d="M20.5 38.5H37.5C39.1569 38.5 40.5 39.8431 40.5 41.5C40.5 43.1568 39.1569 44.5 37.5 44.5L20.4999 44.4999C18.8431 44.4999 17.5 43.1568 17.5 41.4999C17.5 39.8431 18.8431 38.5 20.5 38.5Z" stroke="black"/>
  <path d="M20.5414 15.5H37.2033C40.5115 15.5 43.0712 18.3995 42.6608 21.6822L41.1608 33.6822C40.8168 36.4345 38.4771 38.5 35.7033 38.5H22.0811C19.3931 38.5 17.099 36.5572 16.6562 33.906L15.5797 27.4602L15.0619 21.474C14.784 18.2614 17.3168 15.5 20.5414 15.5Z" stroke="black"/>
</svg>
