<svg width="1554" height="1206" viewBox="0 0 1554 1206" fill="none" xmlns="http://www.w3.org/2000/svg">
  <path d="M1175 799.5L1142.5 793.025M1142.5 793.025L1146.04 764.659L1154.3 761.113L1162.56 707.926L1150.76 703.198L1154 687.5M1142.5 793.025L1135.41 814.3L1146.04 817.846L1127.15 868.669L1112.99 868.669L1105.91 891.125M1105.91 891.125L1135 906M1105.91 891.125L1090.56 913.582L1097.64 917.128L1068.14 958.495L1058.69 958.495L1044.53 979.77M1044.53 979.77L1068.5 1004.5M1044.53 979.77L1020.92 997.499L1028.01 1005.77L990.236 1035.32L979.613 1028.23L952.466 1040.05M952.466 1040.05L977.5 1083M952.466 1040.05L933.581 1058.96L933.581 1068.41L889.91 1084.96L880.467 1075.51L861.582 1084.96M861.582 1084.96L872 1129.5M861.582 1084.96L833.255 1084.96L833.255 1102.69L780.141 1106.24L780.141 1094.42L752.994 1096.78L752.994 1146.42L752.994 1168.88" stroke="#64233D"/>
  <path d="M985.794 769.453C966.696 792.163 952.075 825.846 943.932 849.104C940.243 859.637 932.722 868.837 923.11 874.508C914.021 879.869 904.639 884.113 891.386 878.914C878.503 873.861 857.163 900.1 833.56 918.933C809.958 937.765 783.996 928.349 763.934 918.933C753.836 914.193 741.028 914.175 730.566 915.595C721.668 916.803 712.404 913.308 707.115 906.051C698.192 893.81 686.853 882.417 681.327 890.684C671.886 904.808 595.179 902.454 593.999 884.799C592.819 867.144 562.136 814.179 537.354 782.4C520.645 760.973 535.175 717.416 548.87 689.221C553.164 680.38 553.458 670.05 549.066 661.258C536.99 637.086 527.107 611.202 547.975 589.371C566.938 569.534 641.99 522.674 671.886 490.503L715.55 479.91L746.712 472.806C753.281 471.308 760.137 472.159 766.537 474.267C777.221 477.785 793.061 481.273 808.778 479.91C825.201 478.486 844.909 491.335 858.304 502.774C864.622 508.169 874.186 508.358 882.454 507.537C890.897 506.698 901.23 509.939 910.267 523.459C925.373 546.058 952.751 570.539 964.552 579.955C966.519 583.879 972.341 599.494 979.893 630.566C987.446 661.639 964.552 675.293 979.893 702.364C994.899 728.843 988.548 758.86 985.794 769.453Z" stroke="#64233D" stroke-linecap="round" stroke-dasharray="5 5"/>
  <path d="M324.111 1205.1L324.111 1162.51L284.911 1162.51L212.452 1076.15L186 1095.5C195.503 1119.16 241.5 1162.51 265.905 1181.44L265.905 1205.1L324.111 1205.1Z" stroke="#64233D" stroke-linecap="round"/>
  <rect x="356.385" y="1160.13" width="45.3658" height="32.3254" transform="rotate(90 356.385 1160.13)" stroke="#64233D"/>
  <rect x="388.71" y="1160.13" width="45.3658" height="32.3254" transform="rotate(90 388.71 1160.13)" stroke="#64233D"/>
  <rect x="592.97" y="1150.79" width="45.3658" height="32.3254" transform="rotate(90 592.97 1150.79)" stroke="#64233D"/>
  <rect x="625.295" y="1150.79" width="45.3658" height="32.3254" transform="rotate(90 625.295 1150.79)" stroke="#64233D"/>
  <rect x="656.172" y="1150.79" width="45.3658" height="30.8765" transform="rotate(90 656.172 1150.79)" stroke="#64233D"/>
  <rect x="688.497" y="1150.79" width="45.3658" height="32.3254" transform="rotate(90 688.497 1150.79)" stroke="#64233D"/>
  <rect x="720.823" y="1150.79" width="45.3658" height="32.3254" transform="rotate(90 720.823 1150.79)" stroke="#64233D"/>
  <rect x="753.148" y="1150.79" width="45.3658" height="32.3254" transform="rotate(90 753.148 1150.79)" stroke="#64233D"/>
  <rect x="381.726" y="1041.7" width="46.7275" height="121.792" transform="rotate(48.3377 381.726 1041.7)" stroke="#64233D"/>
  <rect x="1181.26" y="242.127" width="46.7276" height="121.792" transform="rotate(43.6321 1181.26 242.127)" stroke="#64233D"/>
  <rect x="1340.31" y="555.032" width="46.8147" height="122.159" stroke="#64233D"/>
  <path d="M1273.31 358.5C1246.58 361.645 1182.49 371.71 1163.62 382.089C1150.81 389.135 1151.77 402.37 1156.17 413.341C1159.78 422.362 1169.03 427.183 1178.58 428.96C1191.35 431.335 1207.52 434.986 1219.06 439.471C1231.68 444.38 1236.06 454.848 1239.89 463.289C1242.17 468.287 1247.25 471.041 1252.74 470.792C1265.15 470.226 1280.14 468.448 1286.17 464.683" stroke="#64233D"/>
  <rect x="1279.85" y="357.483" width="107.079" height="10.7945" transform="rotate(80.9471 1279.85 357.483)" stroke="#64233D"/>
  <rect x="1302.01" y="387.973" width="33.8537" height="16.7857" transform="rotate(80.95 1302.01 387.973)" stroke="#64233D"/>
  <circle cx="1129.72" cy="653.059" r="24.1318" transform="rotate(90 1129.72 653.059)" stroke="#64233D"/>
  <path d="M212 1076C177.693 1027.99 101.485 891.755 93.9999 725" stroke="#64233D" stroke-linecap="round"/>
  <path d="M263.828 1137L399.455 1022.66C360.143 981.402 280.575 863.051 276.801 719.71L95.1795 724.425" stroke="#64233D" stroke-linecap="round"/>
  <path d="M276.295 674.793L87.9341 674.793" stroke="#64233D" stroke-linecap="round"/>
  <path d="M276.54 674.793C278.51 617.759 305.851 478.674 399.455 378.609L269.449 248.807C215.871 296.795 87.5 413 87.5 674.793" stroke="#64233D" stroke-linecap="round"/>
  <path d="M437.128 341.539C498.7 296.077 556 231.5 728.5 219" stroke="#64233D" stroke-linecap="round"/>
  <path d="M728.363 219.5L728.363 44.5081C618.131 49.2229 490.5 51.5 306.724 204.811L435.46 341.539" stroke="#64233D" stroke-linecap="round"/>
  <path d="M1196.37 216.372L1076.29 341.539C996.234 258.409 846.722 223.457 781.973 216.372L781.973 41.6103C1024.02 43.4996 1159.09 158.905 1196.37 216.372Z" stroke="#64233D" stroke-linecap="round"/>
  <path d="M959.037 1177.5L959.037 1137.44M959.037 1177.5L865 1177.5C898.578 1166.65 931.091 1151.33 959.037 1137.44M959.037 1177.5L959.037 1196L753 1196L753 1161.5C901 1169.5 1212.7 1052.74 1206.08 682L1238 682L1238 718.462L1264 718.462L1264 785.506L1230.9 785.506L1206.08 880.778L1223.81 893.716L1220.26 899.597L1201.35 892.54C1184.01 947.287 1112.89 1061 959.037 1137.44" stroke="#64233D" stroke-linecap="round"/>
  <rect x="1235.54" y="541.196" width="33" height="19" transform="rotate(90 1235.54 541.196)" stroke="#64233D"/>
  <path d="M1235.5 607.5L1235.5 640.5L1216.5 640.5L1216.5 607.5L1235.5 607.5Z" stroke="#64233D"/>
  <path d="M1235.59 568.037L1241.39 568.037M1235.59 552.476L1241.39 552.476M1241.39 546.492L1241.39 574.021" stroke="#64233D" stroke-linecap="round"/>
  <path d="M1216.2 568.037L1211.86 568.037M1216.2 552.476L1211.86 552.476M1211.86 546.492L1211.86 574.021" stroke="#64233D" stroke-linecap="round"/>
  <rect x="1235.5" y="574.5" width="33" height="19" transform="rotate(90 1235.5 574.5)" stroke="#64233D"/>
  <path d="M1236.21 601.056L1240.93 601.056M1236.21 585.724L1240.93 585.724M1240.93 579.826L1240.93 606.954" stroke="#64233D" stroke-linecap="round"/>
  <path d="M1216.52 601.056L1211.8 601.056M1216.52 585.724L1211.8 585.724M1211.8 579.826L1211.8 606.954" stroke="#64233D" stroke-linecap="round"/>
  <rect x="242.359" y="687.112" width="36.7423" height="17.8712" transform="rotate(-0.144241 242.359 687.112)" stroke="#64233D"/>
  <path d="M268.988 687.725L268.976 683.007M253.655 687.763L253.643 683.046M247.746 683.06L274.873 682.992" stroke="#64233D" stroke-linecap="round"/>
  <path d="M269.032 705.417L269.044 710.135M253.7 705.455L253.712 710.173M247.814 710.188L274.942 710.12" stroke="#64233D" stroke-linecap="round"/>
  <rect x="399.299" y="331.269" width="36.7423" height="17.8712" transform="rotate(45.4006 399.299 331.269)" stroke="#64233D"/>
  <path d="M417.512 350.705L420.871 347.393M406.746 339.788L410.105 336.475M405.965 332.276L425.012 351.592" stroke="#64233D" stroke-linecap="round"/>
  <path d="M404.915 363.127L401.556 366.44M394.149 352.21L390.79 355.522M386.649 351.323L405.696 370.639" stroke="#64233D" stroke-linecap="round"/>
  <rect x="766.333" y="184.92" width="36.7423" height="17.8712" transform="rotate(90.8599 766.333 184.92)" stroke="#64233D"/>
  <path d="M765.255 211.534L769.972 211.604M765.485 196.202L770.202 196.273M770.29 190.377L769.883 217.501" stroke="#64233D" stroke-linecap="round"/>
  <path d="M747.565 211.268L742.848 211.197M747.795 195.937L743.078 195.866M743.166 189.97L742.759 217.094" stroke="#64233D" stroke-linecap="round"/>
  <rect x="765.642" y="119.509" width="36.7423" height="17.8712" transform="rotate(90.8599 765.642 119.509)" stroke="#64233D"/>
  <path d="M764.563 146.123L769.28 146.194M764.793 130.792L769.51 130.863M769.599 124.966L769.192 152.091" stroke="#64233D" stroke-linecap="round"/>
  <path d="M746.873 145.858L742.156 145.787M747.103 130.527L742.386 130.456M742.475 124.559L742.067 151.684" stroke="#64233D" stroke-linecap="round"/>
  <rect x="765.642" y="79.4081" width="36.7423" height="17.8712" transform="rotate(90.8599 765.642 79.4081)" stroke="#64233D"/>
  <path d="M764.563 106.022L769.28 106.093M764.793 90.6907L769.51 90.7615M769.599 84.8649L769.192 111.989" stroke="#64233D" stroke-linecap="round"/>
  <path d="M746.873 105.756L742.156 105.686M747.103 90.4253L742.386 90.3545M742.475 84.4579L742.067 111.582" stroke="#64233D" stroke-linecap="round"/>
  <rect x="354.303" y="282.033" width="36.7423" height="17.8712" transform="rotate(46.8694 354.303 282.033)" stroke="#64233D"/>
  <path d="M372.968 300.889L376.411 297.664M362.486 289.699L365.929 286.474M361.897 282.17L380.443 301.968" stroke="#64233D" stroke-linecap="round"/>
  <path d="M358.556 312.896L355.113 316.121M348.073 301.706L344.63 304.932M340.599 300.628L359.145 320.425" stroke="#64233D" stroke-linecap="round"/>
  <rect x="329.192" y="255.126" width="36.7423" height="17.8712" transform="rotate(46.8694 329.192 255.126)" stroke="#64233D"/>
  <path d="M346.9 275.023L350.343 271.797M336.418 263.833L339.861 260.607M335.829 256.304L354.375 276.101" stroke="#64233D" stroke-linecap="round"/>
  <path d="M333.989 287.118L330.546 290.343M323.506 275.928L320.063 279.154M316.032 274.85L334.577 294.647" stroke="#64233D" stroke-linecap="round"/>
  <rect x="175.685" y="688.929" width="36.7423" height="17.8712" transform="rotate(-0.144241 175.685 688.929)" stroke="#64233D"/>
  <path d="M202.314 689.542L202.302 684.824M186.981 689.58L186.969 684.862M181.072 684.877L208.199 684.809" stroke="#64233D" stroke-linecap="round"/>
  <path d="M202.358 707.233L202.37 711.951M187.026 707.272L187.038 711.99M181.14 712.004L208.268 711.936" stroke="#64233D" stroke-linecap="round"/>
  <rect x="135.584" y="688.929" width="36.7423" height="17.8712" transform="rotate(-0.144241 135.584 688.929)" stroke="#64233D"/>
  <path d="M162.213 689.542L162.201 684.824M146.88 689.58L146.868 684.862M140.971 684.877L168.098 684.809" stroke="#64233D" stroke-linecap="round"/>
  <path d="M162.258 707.233L162.269 711.951M146.925 707.272L146.937 711.989M141.039 712.004L168.167 711.936" stroke="#64233D" stroke-linecap="round"/>
  <rect x="1235.5" y="640.5" width="33" height="19" transform="rotate(90 1235.5 640.5)" stroke="#64233D"/>
  <path d="M1236.39 667.105L1241.11 667.105M1236.39 651.772L1241.11 651.772M1241.11 645.875L1241.11 673.002" stroke="#64233D" stroke-linecap="round"/>
  <path d="M1215.7 667.105L1210.98 667.105M1215.7 651.772L1210.98 651.772M1210.98 645.875L1210.98 673.002" stroke="#64233D" stroke-linecap="round"/>
  <path d="M1221 682L1153.77 680.589L1153.77 688L1186.79 688.832C1199 799.5 1100.25 1142.17 753 1145" stroke="#64233D" stroke-linecap="round"/>
  <path d="M1235.5 682L1445 680.589C1464.1 806.5 1478 1121.81 1451.53 1196.41" stroke="#64233D" stroke-linecap="round"/>
  <rect x="1426.05" y="696.8" width="159.831" height="23.6318" transform="rotate(88.8186 1426.05 696.8)" stroke="#64233D"/>
  <rect x="1437.38" y="932.684" width="100.425" height="29.4276" transform="rotate(87.8383 1437.38 932.684)" stroke="#64233D"/>
  <rect x="1439.29" y="1098.38" width="97.5273" height="25.0808" transform="rotate(90 1439.29 1098.38)" stroke="#64233D"/>
  <path d="M1373.23 682.038L1376.75 710.345L1400.24 710.345L1400.24 769.317L1376.75 769.317L1376.75 799.983L1400.24 802.341L1404.94 936.798M1404.94 936.798L1338 941.516L1280.45 919.106L1280.45 889.62L1224.08 894.338M1404.94 936.798L1410.81 1130.23M1410.81 1130.23L1386.15 1130.23L1386.15 1162.07L1410.81 1162.07M1410.81 1130.23L1410.81 1162.07M1410.81 1162.07L1410.81 1176.5M1220.56 1170.33L1241.7 1146.74L1204.11 1113.71L1185 1134" stroke="#64233D" stroke-linecap="round"/>
  <circle cx="218.337" cy="1180.47" r="18.3361" transform="rotate(90 218.337 1180.47)" stroke="#64233D"/>
  <circle cx="102.422" cy="1170.33" r="18.3361" transform="rotate(90 102.422 1170.33)" stroke="#64233D"/>
  <rect x="65.6986" y="1159.24" width="25.0808" height="55.5083" transform="rotate(90 65.6986 1159.24)" stroke="#64233D"/>
  <rect x="75.8414" y="1150.54" width="48.2637" height="74.3444" transform="rotate(90 75.8414 1150.54)" stroke="#64233D"/>
  <path d="M1458.5 806.237L1533.88 806.237L1535.21 827.356M1460 827.356L1535.21 827.356M1535.21 827.356L1535.21 848.475L1461.5 848.475" stroke="#64233D" stroke-linecap="round"/>
  <path d="M1466 966L1535 966L1535 985.5M1535 985.5L1466 985.5M1535 985.5L1535 1005L1466 1005" stroke="#64233D"/>
  <path d="M1534 1005L1534 1025.2M1534 1025.2L1465.62 1025.2M1534 1025.2L1534 1045.4M1534 1045.4L1465.62 1045.4M1534 1045.4L1534 1070.36M1534 1070.36L1465.62 1070.36M1534 1070.36L1527.38 1086.99M1527.38 1086.99L1465.62 1086.99M1527.38 1086.99L1517.45 1108.38M1517.45 1108.38L1463.5 1108.38M1517.45 1108.38L1508.62 1128.58M1508.62 1128.58L1462 1128.58M1508.62 1128.58L1499.81 1149.97M1499.81 1149.97L1460.5 1149.97M1499.81 1149.97L1491.21 1170.18M1491.21 1170.18L1457.5 1170.18M1491.21 1170.18L1483.26 1188L1459 1188" stroke="#64233D"/>
  <rect x="128.003" y="685.436" width="32.3254" height="29.4276" transform="rotate(90 128.003 685.436)" stroke="#64233D"/>
  <rect x="310.829" y="221.923" width="32.0245" height="36.7423" transform="rotate(49.3 310.829 221.923)" stroke="#64233D"/>
  <rect x="771.331" y="40.6611" width="32.3254" height="26.5297" transform="rotate(90 771.331 40.6611)" stroke="#64233D"/>
  <rect x="22.1168" y="-9.15527e-05" width="1149.11" height="19.8764" transform="rotate(90 22.1168 -9.15527e-05)" fill="#6D2F48"/>
  <rect x="18.3898" y="-9.15527e-05" width="1535.45" height="19.8765" fill="#6D2F48"/>
  <rect x="1553.84" y="-9.15527e-05" width="1196.31" height="19.8764" transform="rotate(90 1553.84 -9.15527e-05)" fill="#6D2F48"/>
  <rect x="1553.84" y="1196.31" width="595.05" height="19.8764" transform="rotate(-180 1553.84 1196.31)" fill="#6D2F48"/>
  <path fill-rule="evenodd" clip-rule="evenodd" d="M1550 10H11V1148.5L227.875 1146.95C127.402 1028.89 65 863.02 65.0001 710.5C65.0001 235.5 434.495 21.5 762 21.5C1088.28 21.5 1411.22 231.418 1453.53 806H1542V1137.58L1550 1137.53V10Z" fill="#6D2F48"/>
</svg>
