<svg width="30" height="30" viewBox="0 0 30 30" fill="none" xmlns="http://www.w3.org/2000/svg">
  <path d="M6.5 23.5H23.5C25.1569 23.5 26.5 24.8431 26.5 26.5C26.5 28.1568 25.1569 29.5 23.5 29.5L6.4999 29.4999C4.8431 29.4999 3.5 28.1568 3.5 26.4999C3.5 24.8431 4.8431 23.5 6.5 23.5Z" stroke="black"/>
  <path d="M6.54139 0.5H23.2033C26.5115 0.5 29.0712 3.3995 28.6608 6.6822L27.1608 18.6822C26.8168 21.4345 24.4771 23.5 21.7033 23.5H8.08109C5.39309 23.5 3.09899 21.5572 2.65619 18.906L1.57969 12.4602L1.06189 6.474C0.783986 3.2614 3.31679 0.5 6.54139 0.5Z" stroke="black"/>
</svg>
