<svg width="96" height="33" viewBox="0 0 96 33" fill="none" xmlns="http://www.w3.org/2000/svg">
  <path d="M80 0.5H92C93.933 0.5 95.5 2.067 95.5 4V24.5H76.5V4C76.5 2.067 78.067 0.5 80 0.5Z" stroke="black"/>
  <path d="M42 0.5H54C55.933 0.5 57.5 2.067 57.5 4V24.5H38.5V4C38.5 2.067 40.067 0.5 42 0.5Z" stroke="black"/>
  <path d="M61 0.5H73C74.933 0.5 76.5 2.067 76.5 4V24.5H57.5V4C57.5 2.067 59.067 0.5 61 0.5Z" stroke="black"/>
  <path d="M23 0.5H35C36.933 0.5 38.5 2.067 38.5 4V24.5H19.5V4C19.5 2.067 21.067 0.5 23 0.5Z" stroke="black"/>
  <path d="M4 0.5H16C17.933 0.5 19.5 2.067 19.5 4V24.5H0.5V4C0.5 2.067 2.067 0.5 4 0.5Z" stroke="black"/>
  <mask id="path-6-inside-1_271_714" fill="white">
    <path d="M0 24H96V31C96 32.1046 95.1046 33 94 33H2C0.895429 33 0 32.1046 0 31V24Z"/>
  </mask>
  <path d="M0 24V23H-1V24H0ZM96 24H97V23H96V24ZM0 25H96V23H0V25ZM95 24V31H97V24H95ZM94 32H2V34H94V32ZM1 31V24H-1V31H1ZM2 32C1.44771 32 1 31.5523 1 31H-1C-1 32.6569 0.343143 34 2 34V32ZM95 31C95 31.5523 94.5523 32 94 32V34C95.6569 34 97 32.6569 97 31H95Z" fill="black" mask="url(#path-6-inside-1_271_714)"/>
</svg>
